# xmcd CD database file
#
# Track frame offsets:
#	150
#	15320
#	26357
#	43585
#	70792
#	105975
#	121990
#	153282
#	177784
#	203185
#	231042
#	246975
#	277550
#	311830
#
# Disc length: 4446 seconds
#
# Revision: 0
# Processed by: cddbd v1.5.2PL0 Copyright (c) Steve Scherf et al.
# Submitted via: CDex 1.70beta2
#
DISCID=a5115c0e
DTITLE=Nguyên Lê - 3 Trios
DYEAR=1996
DGENRE=Jazz
TTITLE0=Silk
TTITLE1=Silver
TTITLE2=Sand
TTITLE3=Dance Of The Comet
TTITLE4=Foow
TTITLE5=Kinderhund
TTITLE6=Woof
TTITLE7=Idoma
TTITLE8=La Parfum
TTITLE9=Blue Monkey
TTITLE10=Straight No Chaser
TTITLE11=rhooo
TTITLE12=rhoooo
TTITLE13=rhoooo
EXTD=YEAR: 1996
EXTT0=
EXTT1=
EXTT2=
EXTT3=
EXTT4=
EXTT5=
EXTT6=
EXTT7=
EXTT8=
EXTT9=
EXTT10=
EXTT11=
EXTT12=
EXTT13=
PLAYORDER=
